<svg xmlns="http://www.w3.org/2000/svg" xmlns:xlink="http://www.w3.org/1999/xlink" version="1.1" width="256" height="256" viewBox="0 0 256 256" xml:space="preserve">
<desc>Created with Fabric.js 1.7.22</desc>
<defs>
</defs>
<g transform="translate(128 128) scale(0.72 0.72)" style="">
	<g style="stroke: none; stroke-width: 0; stroke-dasharray: none; stroke-linecap: butt; stroke-linejoin: miter; stroke-miterlimit: 10; fill: none; fill-rule: nonzero; opacity: 1;" transform="translate(-175.05 -175.05000000000004) scale(3.89 3.89)" >
	<path d="M 45 90 c -1.065 0 -2.067 -0.415 -2.821 -1.169 L 38.2 84.852 c -0.571 -0.57 -1.42 -0.74 -2.167 -0.431 l -5.2 2.153 c -0.985 0.407 -2.069 0.407 -3.053 0 c -0.985 -0.407 -1.751 -1.174 -2.159 -2.158 l -2.154 -5.2 c -0.309 -0.746 -1.031 -1.228 -1.838 -1.228 h -5.628 c -2.2 0 -3.989 -1.79 -3.989 -3.989 v -5.628 c 0 -0.808 -0.482 -1.528 -1.228 -1.838 l -5.2 -2.153 c -2.032 -0.842 -3 -3.18 -2.159 -5.212 l 2.154 -5.2 c 0.309 -0.746 0.14 -1.597 -0.431 -2.167 l -3.979 -3.98 C 0.415 47.067 0 46.065 0 45 s 0.415 -2.067 1.168 -2.821 L 5.148 38.2 c 0.571 -0.571 0.74 -1.422 0.431 -2.167 l -2.154 -5.2 c -0.842 -2.033 0.127 -4.371 2.159 -5.212 l 5.199 -2.154 c 0.746 -0.309 1.228 -1.03 1.228 -1.838 v -5.628 c 0 -2.2 1.79 -3.989 3.989 -3.989 h 5.628 c 0.808 0 1.529 -0.482 1.838 -1.228 l 2.154 -5.199 c 0.407 -0.984 1.174 -1.751 2.159 -2.159 c 0.984 -0.408 2.068 -0.408 3.053 0 l 5.2 2.153 c 0.745 0.31 1.597 0.139 2.167 -0.431 l 3.979 -3.979 c 1.507 -1.507 4.135 -1.507 5.641 0 L 51.8 5.148 c 0.57 0.57 1.422 0.74 2.168 0.431 l 5.199 -2.153 c 0.983 -0.407 2.068 -0.408 3.054 0 c 0.984 0.408 1.751 1.174 2.159 2.159 l 2.153 5.199 c 0.31 0.746 1.03 1.228 1.838 1.228 h 5.628 c 2.199 0 3.989 1.79 3.989 3.989 v 5.628 c 0 0.807 0.481 1.529 1.228 1.838 l 5.2 2.154 c 0.984 0.407 1.751 1.174 2.158 2.159 c 0.408 0.984 0.408 2.069 0 3.053 l -2.153 5.2 c -0.31 0.746 -0.14 1.596 0.431 2.167 l 3.979 3.979 C 89.585 42.933 90 43.935 90 45 s -0.415 2.067 -1.169 2.82 l -3.979 3.98 c -0.57 0.57 -0.739 1.421 -0.431 2.167 l 2.153 5.2 c 0.408 0.984 0.408 2.068 0 3.053 c -0.407 0.984 -1.174 1.751 -2.158 2.159 l -5.2 2.153 c -0.746 0.31 -1.228 1.03 -1.228 1.838 v 5.628 c 0 2.199 -1.79 3.989 -3.989 3.989 h -5.628 c -0.808 0 -1.528 0.481 -1.838 1.228 l -2.153 5.2 c -0.408 0.984 -1.175 1.751 -2.159 2.159 c -0.985 0.407 -2.07 0.406 -3.054 -0.001 l -5.199 -2.153 c -0.746 -0.31 -1.597 -0.138 -2.168 0.431 l -3.979 3.979 C 47.067 89.585 46.065 90 45 90 z" style="stroke: none; stroke-width: 1; stroke-dasharray: none; stroke-linecap: butt; stroke-linejoin: miter; stroke-miterlimit: 10; fill: rgb(243,196,50); fill-rule: nonzero; opacity: 1;" transform=" matrix(1 0 0 1 0 0) " stroke-linecap="round" />
	<path d="M 44.422 74.732 c -16.395 0 -29.732 -13.338 -29.732 -29.732 s 13.338 -29.732 29.732 -29.732 S 74.154 28.605 74.154 45 S 60.816 74.732 44.422 74.732 z" style="stroke: none; stroke-width: 1; stroke-dasharray: none; stroke-linecap: butt; stroke-linejoin: miter; stroke-miterlimit: 10; fill: rgb(255,216,59); fill-rule: nonzero; opacity: 1;" transform=" matrix(1 0 0 1 0 0) " stroke-linecap="round" />
</g>
</g>
</svg>